<svg id="Capa_1" enable-background="new 0 0 512 512" height="512" viewBox="0 0 512 512" width="512" xmlns="http://www.w3.org/2000/svg"><g><g><g><path d="m128 512-25.105-104.637-102.895 27.637 94.281-162.754 67.412 22.075 14.355 44.121 61.084-13.374z" fill="#ff5959"/></g><g><path d="m382.713 512-107.846-186.932 61.084 13.374 14.355-44.121 67.412-22.075 94.282 162.754-102.895-27.637z" fill="#e63a57"/></g><g id="Reward_1_"><g><path d="m256 400.244-43.125-39.111-56.924 12.437-18.047-55.488-54.229-17.739 1.67-13.521 9.463-43.755-39.052-43.067 39.053-43.066-12.334-57.012 55.43-18.032 18.018-55.43 57.012 12.349 43.065-38.809 43.066 38.809 57.012-12.349 18.018 55.43 55.43 18.032-12.334 57.012 39.052 43.066-39.053 43.066 12.568 58.037-14.209 3.472-41.455 13.521-18.047 55.474-56.895-12.437z" fill="#7adfe3"/></g></g><path d="m299.154 361.133 56.895 12.436 18.047-55.473 41.455-13.521 14.209-3.471-12.569-58.038 39.053-43.066-39.053-43.066 12.334-57.012-55.429-18.032-18.018-55.43-57.012 12.349-43.066-38.809v400.244z" fill="#55b3dc"/></g><g id="Analytics_20_"><g><path d="m256 103.79-75 75v96.21h60l15-17 15 17h60v-96.21z" fill="#ffda80"/></g><path d="m271 275h60v-96.21l-75-75v154.21z" fill="#ffb54d"/><g><path d="m241 213h30v62h-30z" fill="#5d4d80"/></g></g><g><path d="m346 221.213-90-90-90 90-21.213-21.213 111.213-111.213 111.213 111.213z" fill="#ff5959"/></g><path d="m256 213h15v62h-15z" fill="#443d66"/><path d="m346 221.213 21.213-21.213-111.213-111.213v42.426z" fill="#e63a57"/></g></svg>