<svg id="Capa_1" enable-background="new 0 0 512 512" height="512" viewBox="0 0 512 512" width="512" xmlns="http://www.w3.org/2000/svg"><g><path d="m211 332.656 45 132.909 75 38.935v-171.844z" fill="#4e4cd3"/><path d="m181 332.656v171.844l75-38.935v-132.909z" fill="#666ddc"/><path d="m467 218.5c0-20.076-8.774-38.094-22.685-50.459 5.865-17.663 4.454-37.655-5.584-55.041s-26.646-28.604-44.875-32.356c-3.752-18.23-14.97-34.837-32.356-44.875s-37.378-11.449-55.041-5.584c-12.365-13.911-30.383-22.685-50.459-22.685s-38.094 8.774-50.459 22.685c-17.664-5.865-37.655-4.454-55.041 5.583-17.386 10.038-28.604 26.646-32.356 44.875-18.23 3.753-34.837 14.971-44.875 32.357s-11.449 37.378-5.584 55.041c-13.911 12.365-22.685 30.383-22.685 50.459s8.774 38.094 22.685 50.459c-5.865 17.664-4.454 37.655 5.584 55.041s26.645 28.604 44.875 32.356c3.752 18.23 14.97 34.837 32.356 44.875s37.378 11.449 55.041 5.584c12.365 13.911 30.383 22.685 50.459 22.685s38.095-8.774 50.459-22.685c17.664 5.865 37.655 4.454 55.041-5.584s28.604-26.646 32.356-44.875c18.23-3.752 34.837-14.97 44.875-32.356s11.449-37.378 5.584-55.041c13.911-12.364 22.685-30.383 22.685-50.459z" fill="#ff336d"/><path d="m256 60v317c87.537 0 158.5-70.963 158.5-158.5s-70.963-158.5-158.5-158.5z" fill="#ff545a"/><path d="m384.5 218.5c0-87.537-57.531-158.5-128.5-158.5-87.537 0-158.5 70.963-158.5 158.5s70.963 158.5 158.5 158.5c70.969 0 128.5-70.963 128.5-158.5z" fill="#ff7647"/><path d="m256 120v197c54.4 0 98.5-44.1 98.5-98.5s-44.1-98.5-98.5-98.5z" fill="#ff336d"/><path d="m324.5 218.5c0-54.4-30.669-98.5-68.5-98.5-54.4 0-98.5 44.1-98.5 98.5s44.1 98.5 98.5 98.5c37.831 0 68.5-44.1 68.5-98.5z" fill="#ff545a"/><path d="m474.5 218.5c0-19.778-7.852-38.737-21.69-52.735 4.986-19.043 2.306-39.387-7.583-56.515s-26.168-29.621-45.152-34.825c-5.203-18.985-17.697-35.264-34.824-45.152-17.13-9.889-37.475-12.569-56.515-7.583-13.999-13.839-32.958-21.69-52.736-21.69s-38.737 7.851-52.735 21.691c-19.04-4.988-39.387-2.307-56.515 7.583-17.127 9.888-29.621 26.167-34.824 45.152-18.984 5.204-35.264 17.697-45.152 34.825-9.89 17.128-12.569 37.473-7.582 56.515-13.84 13.997-21.692 32.956-21.692 52.734 0 19.777 7.852 38.736 21.69 52.735-4.986 19.042-2.306 39.387 7.583 56.515s26.168 29.621 45.152 34.824c5.204 18.985 17.697 35.264 34.824 45.152 8.329 4.808 17.42 7.897 26.75 9.244v87.53c0 2.62 1.367 5.049 3.605 6.41 2.239 1.36 5.025 1.453 7.351.247l71.545-37.141 71.544 37.141c1.086.563 2.271.843 3.456.843 1.352 0 2.701-.365 3.895-1.09 2.238-1.36 3.605-3.79 3.605-6.41v-87.53c9.33-1.347 18.422-4.436 26.75-9.244 17.129-9.889 29.622-26.168 34.824-45.152 18.984-5.203 35.264-17.696 45.152-34.824 9.889-17.128 12.569-37.472 7.583-56.515 13.839-13.998 21.691-32.957 21.691-52.735zm-286 199.129c4.956-.281 9.903-1.047 14.765-2.32 12.218 12.079 28.215 19.593 45.235 21.31v24.389l-60 31.148zm75 43.379v-24.388c17.021-1.717 33.017-9.231 45.235-21.31 4.861 1.273 9.808 2.039 14.765 2.32v74.527zm175.833-197.655c-2.24 1.991-3.08 5.125-2.136 7.969 5.404 16.274 3.596 34.107-4.961 48.928s-23.097 25.303-39.892 28.76c-2.936.604-5.23 2.898-5.834 5.834-3.457 16.795-13.939 31.335-28.761 39.892-14.819 8.556-32.653 10.365-48.928 4.961-2.841-.945-5.977-.106-7.969 2.135-11.39 12.817-27.739 20.168-44.852 20.168s-33.462-7.351-44.854-20.167c-1.448-1.629-3.5-2.518-5.606-2.518-.79 0-1.587.125-2.362.383-16.274 5.403-34.106 3.595-48.928-4.961-14.82-8.556-25.303-23.097-28.761-39.893-.604-2.936-2.898-5.229-5.834-5.834-16.795-3.457-31.335-13.939-39.892-28.76s-10.365-32.654-4.961-48.927c.944-2.845.104-5.979-2.136-7.969-12.815-11.393-20.166-27.741-20.166-44.854 0-17.114 7.351-33.462 20.168-44.853 2.24-1.991 3.08-5.125 2.136-7.97-5.405-16.273-3.597-34.106 4.96-48.927 8.557-14.82 23.097-25.303 39.892-28.76 2.936-.604 5.229-2.898 5.834-5.834 3.458-16.796 13.94-31.336 28.761-39.892 14.82-8.557 32.655-10.365 48.928-4.961 2.844.944 5.978.105 7.969-2.135 11.39-12.817 27.739-20.168 44.852-20.168s33.462 7.351 44.854 20.167c1.991 2.241 5.128 3.081 7.969 2.135 16.273-5.404 34.105-3.596 48.928 4.961 14.82 8.556 25.303 23.096 28.761 39.892.604 2.936 2.898 5.229 5.834 5.834 16.795 3.457 31.335 13.94 39.892 28.76s10.365 32.654 4.961 48.928c-.944 2.844-.104 5.978 2.136 7.969 12.816 11.391 20.167 27.739 20.167 44.853s-7.353 33.463-20.169 44.854z"/><path d="m256 52.5c-38.543 0-76.099 13.509-105.75 38.04-3.191 2.641-3.638 7.368-.997 10.56 2.639 3.192 7.367 3.639 10.56.998 26.966-22.311 61.126-34.598 96.187-34.598 83.262 0 151 67.738 151 151s-67.738 151-151 151-151-67.738-151-151c0-35.06 12.287-69.221 34.597-96.188 2.641-3.191 2.194-7.919-.998-10.56-3.191-2.641-7.919-2.194-10.559.998-24.53 29.651-38.04 67.207-38.04 105.75 0 91.533 74.468 166 166 166s166-74.467 166-166-74.468-166-166-166z"/><path d="m362 218.5c0-58.449-47.552-106-106-106s-106 47.551-106 106 47.552 106 106 106 106-47.551 106-106zm-197 0c0-50.178 40.822-91 91-91s91 40.822 91 91-40.822 91-91 91-91-40.822-91-91z"/></g></svg>