<svg id="Capa_1" enable-background="new 0 0 512 512" height="512" viewBox="0 0 512 512" width="512" xmlns="http://www.w3.org/2000/svg"><g><g><path d="m315.537 233.557h-119.073l-112.8 214.55 63.037 10.321 44.238 46.079 65.061-123.75 65.062 123.75 44.237-46.079 63.038-10.321z" fill="#ad7fdd"/></g><g><path d="m388.422 372.188-72.885-138.631h-119.073l-72.885 138.631c5.802 4.412 12.931 6.873 20.291 6.873 3.098-.001 6.16-.428 9.138-1.273 3.731 14.821 17.009 25.311 32.546 25.31 6.076-.001 11.948-1.629 17.138-4.732 5.887 10.513 17.105 17.169 29.293 17.168 2.041 0 4.054-.194 6.024-.552l17.991-34.225 17.993 34.224c1.971.359 3.985.553 6.027.552 12.189-.001 23.405-6.658 29.29-17.168 5.191 3.104 11.063 4.732 17.14 4.732 15.533 0 28.81-10.489 32.542-25.31 2.979.846 6.043 1.273 9.141 1.273 7.36 0 14.488-2.461 20.289-6.872z" fill="#9d66d6"/></g><g><g><path d="m263.173 22.625 9.693-11.742c4.373-5.297 12.781-4.19 15.634 2.058l6.324 13.851c2.427 5.316 9.097 7.103 13.857 3.713l12.402-8.833c5.595-3.985 13.43-.739 14.568 6.034l2.524 15.015c.969 5.763 6.949 9.215 12.424 7.173l14.266-5.322c6.435-2.401 13.164 2.762 12.51 9.599l-1.449 15.157c-.556 5.817 4.327 10.7 10.144 10.144l15.157-1.449c6.837-.653 12 6.075 9.599 12.51l-5.322 14.266c-2.043 5.475 1.41 11.455 7.173 12.424l15.015 2.524c6.774 1.138 10.019 8.974 6.034 14.568l-8.833 12.402c-3.39 4.76-1.603 11.43 3.713 13.857l13.851 6.324c6.248 2.853 7.355 11.261 2.058 15.634l-11.742 9.693c-4.506 3.72-4.506 10.625 0 14.346l11.742 9.693c5.297 4.373 4.19 12.781-2.058 15.634l-13.851 6.324c-5.316 2.427-7.103 9.097-3.713 13.857l8.833 12.402c3.985 5.595.739 13.43-6.034 14.568l-15.015 2.524c-5.763.969-9.215 6.949-7.173 12.424l5.322 14.266c2.401 6.435-2.762 13.164-9.599 12.51l-15.157-1.449c-5.817-.556-10.7 4.327-10.144 10.144l1.449 15.157c.653 6.837-6.075 12-12.51 9.599l-14.266-5.322c-5.475-2.043-11.455 1.41-12.424 7.173l-2.524 15.015c-1.138 6.774-8.974 10.019-14.568 6.034l-12.402-8.833c-4.76-3.39-11.43-1.603-13.857 3.713l-6.324 13.851c-2.853 6.248-11.261 7.355-15.634 2.058l-9.693-11.742c-3.72-4.506-10.625-4.506-14.346 0l-9.693 11.742c-4.373 5.297-12.781 4.19-15.634-2.058l-6.324-13.851c-2.427-5.316-9.097-7.103-13.857-3.713l-12.402 8.833c-5.595 3.985-13.43.739-14.568-6.034l-2.524-15.015c-.969-5.763-6.949-9.215-12.424-7.173l-14.266 5.322c-6.435 2.401-13.164-2.762-12.51-9.599l1.449-15.157c.556-5.817-4.327-10.7-10.144-10.144l-15.157 1.449c-6.837.653-12-6.075-9.599-12.51l5.322-14.266c2.043-5.475-1.41-11.455-7.173-12.424l-15.015-2.524c-6.774-1.138-10.019-8.974-6.034-14.568l8.833-12.402c3.39-4.76 1.603-11.43-3.713-13.857l-13.851-6.324c-6.248-2.853-7.355-11.261-2.058-15.634l11.742-9.693c4.506-3.72 4.506-10.625 0-14.346l-11.742-9.693c-5.297-4.373-4.19-12.781 2.058-15.634l13.851-6.324c5.316-2.427 7.103-9.097 3.713-13.857l-8.833-12.402c-3.985-5.595-.739-13.43 6.034-14.568l15.015-2.524c5.763-.969 9.215-6.949 7.173-12.424l-5.322-14.266c-2.401-6.435 2.762-13.164 9.599-12.51l15.157 1.449c5.817.556 10.7-4.327 10.144-10.144l-1.449-15.157c-.653-6.837 6.075-12 12.51-9.599l14.266 5.322c5.475 2.043 11.455-1.41 12.424-7.173l2.524-15.015c1.138-6.774 8.974-10.019 14.568-6.034l12.402 8.833c4.76 3.39 11.43 1.603 13.857-3.713l6.324-13.851c2.853-6.248 11.261-7.355 15.634-2.058l9.693 11.742c3.721 4.506 10.626 4.506 14.346 0z" fill="#f7e365"/></g><g><path d="m444.515 216.264-11.742-9.693c-4.506-3.72-4.506-10.625 0-14.346l11.742-9.693c5.297-4.373 4.19-12.781-2.058-15.634l-13.851-6.324c-5.316-2.427-7.103-9.097-3.713-13.857l8.833-12.402c3.985-5.595.739-13.43-6.034-14.568l-15.015-2.524c-5.763-.969-9.215-6.949-7.173-12.424l5.322-14.265c2.401-6.435-2.762-13.164-9.599-12.51l-15.157 1.449c-5.817.556-10.7-4.327-10.144-10.144l1.449-15.157c.653-6.837-6.075-12-12.51-9.599l-8.118 3.029c18.235 28.437 28.81 62.257 28.81 98.547 0 100.961-81.845 182.806-182.806 182.806-36.29 0-70.11-10.574-98.547-28.81l-3.029 8.118c-2.401 6.435 2.762 13.164 9.599 12.51l15.157-1.449c5.817-.556 10.7 4.327 10.144 10.144l-1.449 15.157c-.653 6.837 6.075 12 12.51 9.599l14.266-5.322c5.475-2.043 11.455 1.41 12.424 7.173l2.524 15.015c1.138 6.773 8.974 10.019 14.568 6.034l12.402-8.833c4.76-3.39 11.43-1.603 13.857 3.713l6.324 13.85c2.853 6.248 11.261 7.355 15.634 2.058l9.693-11.742c3.72-4.506 10.625-4.506 14.346 0l9.693 11.742c4.373 5.297 12.781 4.19 15.634-2.058l6.324-13.85c2.427-5.316 9.097-7.103 13.857-3.713l12.402 8.833c5.595 3.985 13.43.739 14.568-6.034l2.524-15.015c.969-5.763 6.949-9.215 12.424-7.173l14.266 5.322c6.435 2.401 13.164-2.762 12.51-9.599l-1.449-15.157c-.556-5.817 4.327-10.7 10.144-10.144l15.157 1.449c6.837.653 12-6.075 9.599-12.51l-5.322-14.265c-2.043-5.475 1.41-11.455 7.173-12.424l15.015-2.524c6.773-1.138 10.019-8.974 6.034-14.568l-8.833-12.402c-3.39-4.76-1.603-11.43 3.713-13.857l13.851-6.324c6.247-2.854 7.354-11.262 2.057-15.635z" fill="#f3d332"/></g><g><circle cx="256" cy="199.398" fill="#e69642" r="141.397"/></g><g><path d="m385.556 146.147c0 100.961-81.845 182.806-182.806 182.806-1.181 0-2.359-.012-3.535-.035 17.381 7.631 36.586 11.876 56.785 11.876 78.091 0 141.397-63.306 141.397-141.397 0-20.199-4.245-39.404-11.876-56.785.023 1.176.035 2.354.035 3.535z" fill="#e38523"/></g><g><circle cx="256" cy="199.398" fill="#f7e365" r="109.078"/></g><g><path d="m315.526 107.987c11.17 17.118 17.667 37.561 17.667 59.525 0 60.242-48.836 109.078-109.078 109.078-21.964 0-42.408-6.498-59.525-17.667 19.466 29.832 53.133 49.552 91.411 49.552 60.242 0 109.078-48.836 109.078-109.078-.001-38.277-19.722-71.944-49.553-91.41z" fill="#f3d332"/></g><g><path d="m250.59 252.182-24.732 10.665c-9.528 4.108-19.978-3.484-19.014-13.815l2.5-26.818c.349-3.744-.86-7.467-3.344-10.291l-17.786-20.226c-6.852-7.792-2.86-20.076 7.263-22.353l26.278-5.909c3.669-.825 6.836-3.126 8.754-6.36l13.74-23.165c5.293-8.924 18.21-8.924 23.503 0l13.74 23.165c1.918 3.234 5.085 5.535 8.754 6.36l26.278 5.909c10.123 2.276 14.114 14.561 7.263 22.353l-17.786 20.226c-2.483 2.824-3.693 6.547-3.344 10.291l2.5 26.818c.963 10.331-9.487 17.923-19.014 13.815l-24.732-10.665c-3.454-1.49-7.368-1.49-10.821 0z" fill="#e69642"/></g><g><path d="m316.523 169.344-11.962-2.69c-10.65 45.584-49.882 80.176-97.772 83.843.1 9.565 9.998 16.26 19.068 12.349l24.732-10.665c3.453-1.489 7.367-1.489 10.82 0l24.732 10.665c9.528 4.108 19.978-3.484 19.014-13.815l-2.5-26.818c-.349-3.744.86-7.467 3.344-10.291l17.786-20.226c6.853-7.791 2.861-20.075-7.262-22.352z" fill="#e38523"/></g></g><g><path d="m449.29 210.48-11.742-9.694c-.541-.446-.654-1.001-.654-1.388s.113-.942.655-1.389l11.74-9.693c4.494-3.71 6.723-9.373 5.962-15.15-.761-5.776-4.379-10.67-9.679-13.089l-13.851-6.325c-.638-.291-.892-.798-.991-1.172-.101-.374-.135-.94.272-1.511l8.833-12.402c3.38-4.746 4.066-10.794 1.837-16.177-2.23-5.383-6.992-9.173-12.737-10.139l-15.016-2.524c-.691-.116-1.067-.54-1.261-.875s-.373-.873-.128-1.53l5.322-14.266c2.036-5.459 1.134-11.478-2.413-16.1-3.546-4.622-9.121-7.054-14.928-6.497l-15.155 1.449c-.71.066-1.172-.246-1.446-.52-.273-.273-.585-.746-.519-1.445l1.448-15.157c.555-5.8-1.875-11.381-6.497-14.928-4.622-3.546-10.641-4.448-16.1-2.412l-14.267 5.322c-.656.245-1.194.065-1.529-.128-.336-.193-.76-.569-.876-1.261l-2.523-15.015c-.966-5.747-4.757-10.508-10.14-12.737-5.384-2.23-11.43-1.543-16.176 1.837l-12.403 8.833c-.571.407-1.136.372-1.51.272s-.882-.354-1.173-.991l-6.323-13.852c-2.421-5.3-7.315-8.919-13.092-9.679-5.777-.759-11.44 1.468-15.149 5.961l-9.691 11.742c-.447.541-1.002.655-1.39.655-.387 0-.942-.114-1.389-.654l-9.693-11.742c-3.71-4.493-9.372-6.723-15.151-5.961-5.776.76-10.67 4.379-13.09 9.679l-6.323 13.85c-.292.638-.798.892-1.172.992-.375.101-.939.135-1.511-.272l-12.402-8.833c-4.747-3.38-10.795-4.068-16.176-1.837-5.383 2.23-9.174 6.991-10.14 12.737l-2.523 15.015c-.117.692-.541 1.068-.876 1.261-.336.193-.873.373-1.53.128l-14.265-5.322c-5.458-2.037-11.478-1.135-16.101 2.412s-7.051 9.127-6.497 14.928l1.449 15.156c.066.698-.246 1.171-.52 1.445s-.748.581-1.445.52l-15.157-1.449c-5.8-.553-11.381 1.875-14.928 6.497-3.547 4.623-4.448 10.641-2.412 16.1l5.322 14.266c.245.657.066 1.195-.128 1.53-.193.335-.569.759-1.261.875l-15.015 2.523c-5.746.966-10.508 4.756-12.738 10.139s-1.543 11.431 1.837 16.177l8.833 12.402c.407.571.373 1.137.272 1.511-.1.374-.354.881-.992 1.172l-13.85 6.324c-5.3 2.42-8.919 7.314-9.679 13.09-.761 5.777 1.468 11.441 5.961 15.15l11.742 9.693c.541.447.655 1.002.655 1.389s-.114.942-.655 1.389l-11.741 9.693c-4.494 3.709-6.722 9.372-5.962 15.149.761 5.777 4.379 10.671 9.68 13.091l13.85 6.323c.638.292.892.799.992 1.173.101.374.134.939-.272 1.511l-8.833 12.402c-3.38 4.746-4.067 10.793-1.837 16.176s6.992 9.173 12.737 10.139l15.016 2.524c.691.116 1.067.54 1.261.875s.373.873.128 1.53l-5.322 14.266c-2.037 5.459-1.135 11.478 2.412 16.101s9.13 7.05 14.927 6.497l15.157-1.448c.699-.065 1.171.246 1.445.52.273.273.586.747.52 1.445l-1.449 15.157c-.159 1.66-.065 3.301.247 4.882l-50.378 95.828c-1.122 2.134-1.149 4.677-.074 6.835s3.122 3.667 5.501 4.057l60.565 9.917 42.509 44.268c1.669 1.739 4.071 2.567 6.461 2.231 2.387-.338 4.466-1.802 5.587-3.936l58.421-111.116 58.422 111.115c1.122 2.134 3.201 3.598 5.588 3.936.351.049.702.074 1.051.074 2.026 0 3.985-.822 5.409-2.305l42.51-44.268 60.564-9.917c2.379-.39 4.426-1.899 5.501-4.057s1.048-4.701-.074-6.835l-18.55-35.28c-1.928-3.666-6.46-5.076-10.129-3.148-3.666 1.928-5.076 6.462-3.148 10.129l13.707 26.07-52.761 8.639c-1.602.262-3.074 1.036-4.197 2.207l-37.035 38.566-49.664-94.459c2.781 1.242 5.891 1.721 9.038 1.307 5.777-.76 10.671-4.378 13.092-9.68l6.323-13.849c.292-.639.799-.893 1.173-.993.377-.099.94-.133 1.511.273l12.402 8.832c4.746 3.381 10.793 4.067 16.176 1.838 5.383-2.23 9.174-6.992 10.14-12.738l2.523-15.015c.116-.691.54-1.068.876-1.261.335-.193.873-.373 1.529-.128l14.267 5.322c3.926 1.466 8.139 1.402 11.917-.065l12.692 24.151c1.342 2.554 3.947 4.013 6.646 4.013 1.176 0 2.369-.277 3.482-.862 3.666-1.927 5.077-6.461 3.149-10.128l-15.537-29.565c.312-1.582.406-3.223.247-4.884l-1.448-15.158c-.066-.698.245-1.17.519-1.444.275-.274.755-.58 1.445-.52l15.156 1.448c5.794.552 11.381-1.874 14.928-6.496 3.547-4.623 4.449-10.641 2.413-16.101l-5.322-14.265c-.245-.657-.066-1.195.128-1.531.193-.335.569-.759 1.261-.875l15.016-2.523c5.746-.966 10.507-4.756 12.737-10.139s1.543-11.431-1.837-16.177l-8.833-12.401c-.407-.571-.373-1.137-.272-1.512.1-.374.354-.881.991-1.172l13.851-6.324c5.3-2.42 8.918-7.314 9.679-13.09.76-5.777-1.47-11.441-5.962-15.15zm-260.147 281.321-37.034-38.566c-1.124-1.17-2.597-1.944-4.198-2.207l-52.762-8.639 42.69-81.203c3.778 1.467 7.992 1.53 11.919.065l14.265-5.322c.657-.246 1.194-.066 1.53.128.335.193.759.569.875 1.261l2.524 15.015c.966 5.746 4.756 10.508 10.14 12.738 5.382 2.229 11.43 1.542 16.176-1.838l12.402-8.833c.571-.407 1.137-.372 1.511-.273.374.101.881.354 1.173.992l6.323 13.85c2.42 5.3 7.313 8.919 13.09 9.68.747.098 1.492.146 2.231.146 2.378 0 4.691-.515 6.815-1.465zm251.236-268.129c-.059.451-.287 1.061-1.037 1.403l-13.851 6.324c-4.576 2.09-7.948 6.075-9.25 10.935-1.302 4.859-.375 9.997 2.543 14.095l8.833 12.402c.479.671.371 1.314.197 1.734s-.552.95-1.365 1.087l-15.016 2.523c-4.961.833-9.249 3.811-11.765 8.168s-2.95 9.56-1.192 14.274l5.322 14.265c.288.773.019 1.365-.259 1.727-.276.361-.785.772-1.6.696l-15.156-1.448c-5.012-.479-9.923 1.288-13.48 4.845-3.558 3.558-5.323 8.471-4.844 13.478l1.448 15.157c.078.821-.336 1.323-.697 1.601-.36.276-.952.547-1.725.259l-14.266-5.322c-4.715-1.758-9.916-1.324-14.274 1.191-4.357 2.516-7.335 6.804-8.169 11.766l-2.523 15.015c-.137.813-.666 1.191-1.087 1.366-.421.173-1.062.28-1.734-.197l-12.401-8.832c-4.098-2.919-9.235-3.846-14.094-2.545-4.86 1.302-8.846 4.673-10.937 9.252l-6.323 13.849c-.343.75-.953.979-1.404 1.039-.453.06-1.1-.004-1.623-.639l-9.694-11.743c-3.203-3.88-7.926-6.105-12.957-6.105s-9.753 2.226-12.956 6.106l-9.692 11.741c-.525.637-1.174.7-1.625.64s-1.061-.288-1.403-1.038l-6.324-13.85c-2.089-4.577-6.075-7.948-10.935-9.251-4.86-1.302-9.998-.375-14.095 2.544l-12.402 8.833c-.67.479-1.313.371-1.734.197-.42-.174-.951-.553-1.087-1.366l-2.524-15.015c-.834-4.961-3.811-9.25-8.168-11.766-4.357-2.515-9.559-2.949-14.274-1.191l-14.265 5.322c-.771.288-1.365.019-1.727-.259-.361-.277-.775-.78-.697-1.601l1.449-15.157c.479-5.009-1.288-9.922-4.845-13.479-3.558-3.558-8.474-5.326-13.478-4.844l-15.157 1.448c-.823.075-1.323-.336-1.6-.696-.277-.361-.547-.954-.259-1.726l5.322-14.266c1.759-4.714 1.324-9.916-1.191-14.274-2.516-4.357-6.804-7.334-11.765-8.168l-15.016-2.524c-.813-.136-1.191-.667-1.365-1.087s-.281-1.062.197-1.733l8.833-12.402c2.918-4.098 3.846-9.235 2.544-14.095s-4.674-8.846-9.251-10.936l-13.85-6.324c-.75-.343-.979-.953-1.038-1.404-.06-.451.003-1.099.639-1.624l11.741-9.693c3.88-3.203 6.105-7.925 6.106-12.956 0-5.031-2.225-9.754-6.105-12.957l-11.742-9.693c-.636-.525-.698-1.173-.639-1.624s.288-1.061 1.038-1.403l13.85-6.324c4.577-2.09 7.949-6.075 9.251-10.935s.375-9.997-2.544-14.095l-8.833-12.401c-.479-.672-.372-1.314-.197-1.735.174-.42.553-.95 1.366-1.086l15.015-2.524c4.961-.834 9.25-3.811 11.766-8.168s2.95-9.56 1.191-14.274l-5.322-14.266c-.288-.772-.019-1.365.258-1.726s.78-.769 1.6-.697l15.158 1.449c5.008.48 9.921-1.287 13.478-4.845 3.558-3.558 5.323-8.47 4.845-13.479l-1.449-15.156c-.078-.821.335-1.323.697-1.6.36-.277.95-.548 1.726-.259l14.265 5.322c4.716 1.76 9.917 1.324 14.274-1.191 4.357-2.516 7.334-6.804 8.169-11.766l2.523-15.015c.137-.813.667-1.191 1.087-1.366.421-.174 1.063-.282 1.734.197l12.402 8.834c4.098 2.918 9.235 3.844 14.095 2.543 4.86-1.302 8.845-4.673 10.935-9.251l6.324-13.851c.342-.75.952-.978 1.403-1.037.449-.061 1.1.003 1.625.639l9.693 11.742c3.203 3.879 7.925 6.105 12.956 6.105h.001c5.03 0 9.753-2.225 12.956-6.105h.001l9.693-11.742c.523-.635 1.17-.7 1.623-.639.451.059 1.062.288 1.404 1.037l6.323 13.852c2.091 4.577 6.076 7.948 10.937 9.25 4.856 1.301 9.996.374 14.093-2.544l12.402-8.833c.672-.479 1.314-.371 1.734-.197.421.174.95.553 1.087 1.366l2.523 15.015c.834 4.961 3.812 9.25 8.169 11.766 4.356 2.515 9.561 2.949 14.273 1.191l14.267-5.322c.772-.287 1.363-.018 1.726.258.36.277.774.78.696 1.601l-1.448 15.156c-.48 5.008 1.286 9.921 4.843 13.479 3.558 3.558 8.461 5.327 13.481 4.846l15.155-1.449c.84-.076 1.325.336 1.602.697.276.361.546.954.258 1.726l-5.322 14.266c-1.758 4.714-1.323 9.917 1.192 14.274 2.516 4.356 6.804 7.333 11.765 8.167l15.016 2.524c.813.136 1.191.666 1.365 1.086s.281 1.063-.197 1.734l-8.833 12.402c-2.918 4.098-3.846 9.236-2.543 14.096 1.303 4.859 4.674 8.845 9.25 10.934l13.851 6.325c.75.342.979.952 1.037 1.402.06.451-.003 1.099-.639 1.625l-11.741 9.693c-3.881 3.203-6.106 7.926-6.106 12.958 0 5.031 2.226 9.754 6.106 12.956l11.741 9.693c.635.524.698 1.172.638 1.623z"/><path d="m256 50.505c-37.452 0-73.25 13.961-100.8 39.311-3.048 2.805-3.245 7.549-.44 10.598 2.805 3.048 7.55 3.245 10.598.44 24.773-22.795 56.964-35.349 90.642-35.349 73.834 0 133.902 60.064 133.902 133.891 0 73.833-60.068 133.901-133.902 133.901-73.833 0-133.901-60.068-133.901-133.901 0-26.174 7.553-51.527 21.842-73.318 2.271-3.464 1.305-8.113-2.159-10.385-3.463-2.272-8.113-1.305-10.385 2.159-15.896 24.242-24.298 52.439-24.298 81.544 0 82.104 66.797 148.901 148.901 148.901s148.902-66.797 148.902-148.901c0-82.098-66.797-148.891-148.902-148.891z"/><path d="m344.194 264.012c3.497 2.217 8.132 1.181 10.351-2.318 11.8-18.609 18.036-40.151 18.036-62.297 0-64.283-52.298-116.581-116.581-116.581s-116.581 52.298-116.581 116.581 52.298 116.581 116.581 116.581c26.877 0 53.102-9.365 73.845-26.37 3.203-2.626 3.671-7.352 1.045-10.555-2.625-3.204-7.352-3.67-10.555-1.045-18.069 14.813-40.916 22.97-64.336 22.97-56.012 0-101.581-45.569-101.581-101.581s45.57-101.581 101.582-101.581 101.581 45.569 101.581 101.581c0 19.297-5.431 38.061-15.704 54.265-2.218 3.498-1.181 8.132 2.317 10.35z"/><path d="m329.418 196.65c4.984-5.668 6.567-13.337 4.235-20.515s-8.121-12.452-15.485-14.108l-26.278-5.909c-1.647-.371-3.087-1.417-3.948-2.868l-13.74-23.167c-3.851-6.491-10.655-10.367-18.203-10.366-7.547 0-14.351 3.876-18.201 10.367l-13.74 23.166c-.861 1.453-2.301 2.498-3.949 2.869l-26.277 5.909c-7.364 1.656-13.152 6.93-15.485 14.108s-.75 14.847 4.234 20.515l17.786 20.226c1.115 1.269 1.665 2.96 1.508 4.642l-2.501 26.818c-.7 7.515 2.527 14.65 8.633 19.086s13.889 5.3 20.82 2.312l24.732-10.665c1.552-.669 3.331-.669 4.881 0l24.733 10.665c2.728 1.176 5.586 1.755 8.423 1.755 4.373 0 8.693-1.376 12.397-4.067 6.107-4.437 9.333-11.572 8.632-19.086l-2.5-26.816c-.156-1.683.393-3.375 1.508-4.643zm-29.049 10.321c-3.829 4.355-5.717 10.164-5.18 15.94l2.5 26.818c.295 3.154-1.659 4.938-2.514 5.558-.854.621-3.151 1.929-6.063.673l-24.733-10.665c-2.663-1.148-5.522-1.722-8.38-1.722s-5.717.574-8.379 1.722l-24.732 10.665c-2.91 1.254-5.211-.053-6.063-.673-.854-.621-2.808-2.404-2.514-5.559l2.501-26.817c.538-5.774-1.35-11.585-5.179-15.94l-17.786-20.226c-2.092-2.379-1.56-4.97-1.233-5.974.326-1.003 1.418-3.414 4.51-4.108l26.277-5.909c5.659-1.273 10.601-4.863 13.559-9.851l13.74-23.166c1.616-2.725 4.245-3.019 5.3-3.019s3.685.294 5.301 3.019l13.74 23.167c2.959 4.988 7.901 8.578 13.559 9.851l26.278 5.909c3.091.695 4.184 3.105 4.51 4.108s.858 3.595-1.233 5.974z"/></g></g></svg>