<svg id="Capa_1" enable-background="new 0 0 512 512" height="512" viewBox="0 0 512 512" width="512" xmlns="http://www.w3.org/2000/svg"><g><g><path d="m211 175.211v68.789h30v-30h30v30h30v-68.789l-45-45z"/><path d="m456.244 199-39.053-43.066 12.349-57.012-55.43-18.032-18.032-55.43-57.012 12.349-43.066-37.809-43.066 37.809-57.012-12.349-18.032 55.43-55.43 18.032 12.349 57.012-39.053 43.066 39.053 43.066-9.478 43.755-1.655 13.521 54.214 17.739 18.047 55.488 56.924-12.437 43.139 39.112 43.14-39.111 56.924 12.437 18.047-55.474 41.455-13.521 14.194-3.472-12.568-58.037zm-110.244 21.211-15-15v68.789c-11.515 0-157.508 0-150 0v-68.789l-15 15-21.211-21.211 111.211-111.211 111.211 111.211z"/></g><path d="m449.403 326.187-26.704 6.524-24.77 8.144-21.739 66.812-60.595-13.233 66.147 117.566 27.378-105.637 102.88 27.637z"/><path d="m135.81 407.682-21.739-66.827-50.42-16.497-63.651 109.642 102.88-27.637 27.378 105.637 66.147-117.564z"/></g></svg>