<?xml version="1.0" encoding="iso-8859-1"?>
<!-- Generator: Adobe Illustrator 19.0.0, SVG Export Plug-In . SVG Version: 6.00 Build 0)  -->
<svg version="1.1" id="Capa_1" xmlns="http://www.w3.org/2000/svg" xmlns:xlink="http://www.w3.org/1999/xlink" x="0px" y="0px"
	 viewBox="0 0 512 512" style="enable-background:new 0 0 512 512;" xml:space="preserve">
<g>
	<g>
		<path d="M298.155,203.575l30.058-28.593l-41.878-5.947c-4.847-0.689-9.066-3.706-11.277-8.086L256,123.246l-19.057,37.703
			c-2.212,4.38-6.431,7.397-11.279,8.086l-41.878,5.947l30.058,28.593c3.633,3.472,5.303,8.525,4.438,13.461l-7.178,40.823
			l38.04-19.525c4.307-2.197,9.404-2.197,13.71,0l38.04,19.525l-7.178-40.823C292.853,212.099,294.523,207.047,298.155,203.575z"/>
	</g>
</g>
<g>
	<g>
		<path d="M256,0C148.485,0,61.009,87.476,61.009,194.991S148.485,389.982,256,389.982s194.991-87.476,194.991-194.991
			S363.515,0,256,0z M371.337,175.348l-46.668,44.412l11,62.634c2.127,12.158-10.633,21.644-21.635,15.937L256,268.538
			l-58.034,29.794c-10.97,5.634-23.777-3.689-21.635-15.937l11.001-62.634l-46.668-44.412c-9.071-8.656-4.132-23.973,8.232-25.722
			l64.802-9.199l28.915-57.199c5.098-10.107,21.679-10.107,26.776,0l28.915,57.199l64.802,9.199
			C375.468,151.375,380.407,166.693,371.337,175.348z"/>
	</g>
</g>
<g>
	<g>
		<path d="M256,419.981c-37.917,0-73.622-9.518-104.995-26.15v103.146c0,12.001,13.434,19.112,23.319,12.479L256,455.012
			l81.676,54.446c9.931,6.621,23.319-0.495,23.319-12.479V393.831C329.621,410.464,293.917,419.981,256,419.981z"/>
	</g>
</g>
<g>
</g>
<g>
</g>
<g>
</g>
<g>
</g>
<g>
</g>
<g>
</g>
<g>
</g>
<g>
</g>
<g>
</g>
<g>
</g>
<g>
</g>
<g>
</g>
<g>
</g>
<g>
</g>
<g>
</g>
</svg>
