<svg id="Capa_1" enable-background="new 0 0 510 510" height="512" viewBox="0 0 510 510" width="512" xmlns="http://www.w3.org/2000/svg"><g><path d="m247.481 310.271-7.481-9.195c0-12.872 0-23.934 0-36.806l7.5-6.25 7.5 13.75 10 14.114-10 14.116z" fill="#fec258"/><path d="m262.519 310.271 7.481-9.194c0-12.872 0-23.934 0-36.806l-7.5-6.25-7.5 13.75v28.229z" fill="#fd996b"/><path d="m225 0-10 82.5 10 82.5 15 17.5 15-2.5 10-90-10-90c-10.492 0-19.508 0-30 0z" fill="#f9f9f9"/><path d="m285 0c-10.492 0-19.508 0-30 0v180l15 2.5 15-17.5 10-82.5z" fill="#e2dff4"/><path d="m225 0h-75v127.5l35.14 27.569 39.86 9.931z" fill="#bee75e"/><path d="m360 127.5c0-15.411 0-111.987 0-127.5-20.194 0-63.236 0-75 0v165l37.5-8.75z" fill="#8ee26b"/><path d="m150 127.5v91.77l105 52.5 10-45.886-10-45.884c-4.299-2.149-99.898-49.949-105-52.5z" fill="#8ee26b"/><path d="m360 219.27c0-11.096 0-80.602 0-91.77-32.088 16.044-73.09 36.545-105 52.5v91.771c10-5 90.679-45.339 105-52.501z" fill="#00cb75"/><path d="m150 405c0 57.895 47.1 105 105 105l10-105-10-105c-57.895 0-105 47.1-105 105z" fill="#fee05b"/><path d="m360 405c0-28.949-11.775-55.199-30.789-74.212-19.013-19.013-45.263-30.788-74.211-30.788v210c57.895 0 105-47.1 105-105z" fill="#fec258"/><path d="m210 405c0 24.811 20.186 45 45 45l10-45-10-45c-24.811 0-45 20.186-45 45z" fill="#fec258"/><path d="m300 405c0-24.811-20.186-45-45-45v90c24.811 0 45-20.186 45-45z" fill="#fd996b"/></g></svg>