<svg id="Capa_1" enable-background="new 0 0 512 512" height="512" viewBox="0 0 512 512" width="512" xmlns="http://www.w3.org/2000/svg"><g><g><path d="m435.063 261.493 49.013-35.493-49.014-35.493 31.743-51.665-59.121-14.194 9.448-59.78-59.78 9.448-14.194-59.121-51.665 31.743-35.493-46.938-35.493 46.938-51.665-31.743-14.194 59.121-59.78-9.448 9.448 59.78-59.121 14.194 31.743 51.665-49.014 35.493 49.014 35.493-31.743 51.665 59.092 14.18-8.921 59.722 59.282-9.375 14.194 59.15 51.65-31.802 35.508 49.043 35.508-49.043 51.65 31.802 14.194-59.15 59.282 9.375-8.921-59.722 59.092-14.18zm-179.063 84.507c-66.167 0-120-53.833-120-120s53.833-120 120-120 120 53.833 120 120-53.833 120-120 120z"/><path d="m256 136c-49.629 0-90 40.371-90 90s40.371 90 90 90 90-40.371 90-90-40.371-90-90-90zm-15 141.211-40.605-40.605 21.211-21.211 19.394 19.394 49.395-49.395 21.211 21.211z"/></g><path d="m149.33 484.076-17.388-72.422-72.29 11.426.898-6.008-42.558 63.928h81.797l38.115 31 35.786-42.922z"/><path d="m452.348 423.08-72.29-11.426-17.388 72.422-24.36-14.998 35.786 42.922 38.115-31h81.797l-42.558-63.928z"/></g></svg>