<svg id="Layer_1" enable-background="new 0 0 511 511" height="512" viewBox="0 0 511 511" width="512" xmlns="http://www.w3.org/2000/svg"><g><path d="m509.056 371.695c-.848.93-13.274 14.49-31.449 26.62l-43.455 5.91-.988 43.1c-4.272 12.96-10.549 27.63-19.672 41.23-1.437 2.15-3.793 3.32-6.218 3.32-1.258 0-2.535-.32-3.703-.99-2.485-1.43-56.789-32.97-106.702-96.03-4.551-5.74-9.052-11.74-13.484-18.01-2.385-3.37-1.597-8.04 1.767-10.44l31.129-22.25 51.699-36.95 30.491-21.8c3.244-2.32 7.735-1.68 10.21 1.45 5.21 6.6 10.659 12.85 16.338 18.73 23.354 24.26 50.571 42.39 81.162 54.05 2.306.88 4.042 2.85 4.611 5.27.579 2.41-.069 4.95-1.736 6.79z" fill="#78c2ef"/><path d="m425.02 305.585c-28.474 45.05-74.345 77.96-128.15 89.27-4.551-5.74-9.052-11.74-13.484-18.01-2.385-3.37-1.597-8.04 1.767-10.44l31.129-22.25 51.699-36.95 30.491-21.8c3.244-2.32 7.735-1.68 10.21 1.45 5.209 6.6 10.659 12.85 16.338 18.73z" fill="#74a1e2"/><path d="m477.607 398.315c-10.629 7.09-23.215 13.7-36.599 17-1.038 6.55-3.323 18.32-7.845 32.01-14.602-8.66-53.066-33.09-88.168-69.26-10.06-10.37-19.851-21.71-28.714-33.91l51.699-36.95c8.713 12.53 18.494 23.78 28.604 33.78 31.36 30.99 65.813 49.86 81.023 57.33z" fill="#e5eaf9"/><path d="m227.614 376.845c-4.431 6.27-8.933 12.27-13.484 18.01-49.913 63.06-104.217 94.6-106.702 96.03-1.168.67-2.445.99-3.703.99-2.425 0-4.781-1.17-6.218-3.32-9.122-13.6-15.4-28.27-19.672-41.23l-.03-42.05-44.413-6.96c-18.175-12.13-30.6-25.69-31.449-26.62-1.667-1.84-2.315-4.38-1.737-6.79.569-2.42 2.306-4.39 4.611-5.27 30.59-11.66 57.807-29.79 81.162-54.05 5.679-5.88 11.128-12.13 16.338-18.73 2.475-3.13 6.966-3.77 10.21-1.45l30.491 21.8 51.699 36.95 31.129 22.25c3.365 2.4 4.154 7.07 1.768 10.44z" fill="#78c2ef"/><path d="m227.614 376.845c-4.431 6.27-8.933 12.27-13.484 18.01-53.805-11.31-99.676-44.22-128.15-89.27 5.679-5.88 11.128-12.13 16.338-18.73 2.475-3.13 6.966-3.77 10.21-1.45l30.491 21.8 51.699 36.95 31.129 22.25c3.364 2.4 4.153 7.07 1.767 10.44z" fill="#74a1e2"/><path d="m194.718 344.155c-8.863 12.2-18.654 23.54-28.714 33.91-35.102 36.17-73.567 60.6-88.168 69.26-4.521-13.69-6.807-25.46-7.845-32.01-13.384-3.3-25.969-9.91-36.599-17 15.21-7.47 49.663-26.34 81.022-57.33 10.11-10 19.891-21.25 28.604-33.78z" fill="#e5eaf9"/><path d="m143.019 307.205 51.699 36.95c-8.863 12.2-18.654 23.54-28.714 33.91-19.143-9.59-36.539-22.14-51.59-37.08 10.111-10 19.892-21.25 28.605-33.78z" fill="#cbd6ef"/><path d="m396.585 340.985c-15.051 14.94-32.447 27.49-51.59 37.08-10.06-10.37-19.851-21.71-28.714-33.91l51.699-36.95c8.714 12.53 18.495 23.78 28.605 33.78z" fill="#cbd6ef"/><g><path d="m381.594 71.635v26.21l-.01 200.78v26.2c-32.297 32.42-76.91 52.51-126.084 52.51-3.683 0-7.336-.11-10.959-.33-44.833-2.75-85.254-22.19-115.136-52.19v-253.18c29.882-29.99 70.303-49.43 115.136-52.18 3.623-.22 7.276-.33 10.959-.33 49.184 0 93.797 20.09 126.094 52.51z" fill="#ffe0a9"/><g fill="#ffcb78"><path d="m381.584 298.625v26.2c-32.297 32.42-76.91 52.51-126.084 52.51-3.683 0-7.336-.11-10.959-.33 57.029-3.47 106.842-33.73 137.043-78.38z"/><path d="m381.594 71.635v26.21c-30.211-44.66-80.024-74.92-137.053-78.39 3.623-.22 7.276-.33 10.959-.33 49.184 0 93.797 20.09 126.094 52.51z"/></g><g fill="#ffcb78"><path d="m433.912 198.225c0 49.39-20.011 94.17-52.328 126.6l-11.258-11.3-20.231-20.32v-189.95l20.241-20.32 11.258-11.3c32.307 32.44 52.318 77.21 52.318 126.59z"/><path d="m160.904 103.255v189.95l-31.499 31.61c-32.307-32.43-52.318-77.21-52.318-126.59s20.011-94.15 52.318-126.59z"/></g><path d="m433.912 198.225c0 49.39-20.011 94.17-52.328 126.6l-11.258-11.3c26.199-31.15 41.968-71.37 41.968-115.29s-15.769-84.15-41.958-115.3l11.258-11.3c32.307 32.44 52.318 77.21 52.318 126.59z" fill="#ffa757"/><path d="m393.89 198.225c0 76.73-61.959 138.94-138.39 138.94-3.693 0-7.356-.15-10.979-.44-71.301-5.61-127.412-65.48-127.412-138.5s56.111-132.88 127.412-138.49c3.623-.29 7.286-.44 10.979-.44 76.431 0 138.39 62.2 138.39 138.93z" fill="#ffa757"/><path d="m393.89 198.225c0 76.73-61.959 138.94-138.39 138.94-3.693 0-7.356-.15-10.979-.44 71.301-5.61 127.412-65.48 127.412-138.5s-56.111-132.88-127.412-138.49c3.623-.29 7.286-.44 10.979-.44 76.431 0 138.39 62.2 138.39 138.93z" fill="#ff895a"/><g fill="#ffcb78"><path d="m296 282.597c-4.142 0-7.5 3.351-7.5 7.485s3.358 7.485 7.5 7.485 7.5-3.351 7.5-7.485-3.358-7.485-7.5-7.485z"/><ellipse cx="255.504" cy="99.593" rx="7.5" ry="7.485"/><ellipse cx="215" cy="106.58" rx="7.5" ry="7.485"/><path d="m215 282.597c-4.142 0-7.5 3.351-7.5 7.485s3.358 7.485 7.5 7.485 7.5-3.351 7.5-7.485-3.358-7.485-7.5-7.485z"/><ellipse cx="255.504" cy="297.068" rx="7.5" ry="7.485"/><ellipse cx="296" cy="106.58" rx="7.5" ry="7.485"/><ellipse cx="347.251" cy="157.831" rx="7.485" ry="7.5"/><path d="m164.248 198.327c0-4.142-3.351-7.5-7.485-7.5s-7.485 3.358-7.485 7.5 3.351 7.5 7.485 7.5 7.485-3.358 7.485-7.5z"/><ellipse cx="163.749" cy="238.831" rx="7.485" ry="7.5"/><ellipse cx="347.251" cy="238.831" rx="7.485" ry="7.5"/><path d="m354.238 190.827c-4.134 0-7.485 3.358-7.485 7.5s3.351 7.5 7.485 7.5 7.485-3.358 7.485-7.5-3.351-7.5-7.485-7.5z"/><ellipse cx="163.749" cy="157.831" rx="7.485" ry="7.5"/></g><path d="m327.398 179.653c-.91-2.845-3.42-4.877-6.387-5.173-.692-.069-16.206-1.596-39.672-2.422-10.252-26.697-19.179-46.024-19.274-46.227-1.227-2.648-3.876-4.342-6.79-4.342-2.913 0-5.562 1.694-6.79 4.342-.094.203-8.991 19.462-19.218 46.084-13.948.449-27.294 1.311-39.736 2.566-2.965.299-5.47 2.333-6.378 5.176-.909 2.844-.047 5.957 2.193 7.925 8.464 7.437 18.498 15.479 29.876 23.947-5.364 16.634-9.59 32.055-12.579 45.906-.627 2.907.52 5.91 2.922 7.656 1.305.949 2.848 1.429 4.396 1.429 1.3 0 2.604-.339 3.775-1.024.192-.112 18.382-10.781 41.539-26.038 23.157 15.257 41.348 25.926 41.54 26.038 2.563 1.5 5.769 1.341 8.171-.405 2.403-1.746 3.549-4.75 2.921-7.656-2.988-13.85-7.214-29.27-12.578-45.906 11.374-8.466 21.407-16.507 29.875-23.947 2.244-1.969 3.104-5.085 2.194-7.929z" fill="#ffe0a9"/></g></g></svg>