<svg id="Capa_1" enable-background="new 0 0 512 512" height="512" viewBox="0 0 512 512" width="512" xmlns="http://www.w3.org/2000/svg"><g><g><g><g><g><path d="m185.216 315.145 84.022-162.76-41.205-21.251-96.927 187.943c-1.672 3.241 1.226 6.951 4.776 6.115l42.338-9.972c1.482-.349 2.882.038 3.902 1.063 1.17.481 2.514-.013 3.094-1.138z" fill="#eab14d"/><path d="m267.192 151.33-85.071 164.954c.433.408.796.9 1.033 1.482l16.423 40.277c1.377 3.377 6.08 3.586 7.751.345l96.927-187.943z" fill="#e7a52e"/><path d="m248.33 149.514-40.586 20.931 96.927 187.943c1.672 3.241 6.374 3.032 7.751-.345l16.423-40.277c.645-1.582 2.105-2.573 3.744-2.637l.7-.876z" fill="#eab14d"/><path d="m380.895 319.078-96.927-187.943-36.547 18.848 85.17 165.146c.393-.02.791-.001 1.19.093l42.338 9.973c3.55.835 6.447-2.875 4.776-6.117z" fill="#e7a52e"/></g><g><path d="m276.278 9.709c7.107 8.829 19.109 12.045 29.678 7.952 15.496-6.001 32.572 3.858 35.123 20.278 1.74 11.199 10.527 19.986 21.726 21.726 16.421 2.551 26.279 19.627 20.278 35.123-4.093 10.569-.877 22.572 7.952 29.678 12.945 10.42 12.945 30.137 0 40.557-8.829 7.107-12.045 19.109-7.952 29.678 6.001 15.496-3.858 32.572-20.278 35.123-11.199 1.74-19.986 10.527-21.726 21.726-2.551 16.421-19.627 26.279-35.123 20.278-10.569-4.093-22.572-.877-29.678 7.952-10.42 12.945-30.137 12.945-40.557 0-7.107-8.829-19.109-12.045-29.678-7.952-15.496 6.001-32.572-3.858-35.123-20.278-1.74-11.199-10.527-19.986-21.726-21.726-16.421-2.551-26.279-19.627-20.278-35.123 4.093-10.569.877-22.572-7.952-29.678-12.945-10.42-12.945-30.137 0-40.557 8.829-7.107 12.045-19.109 7.952-29.678-6.001-15.496 3.858-32.572 20.278-35.123 11.199-1.74 19.986-10.527 21.726-21.726 2.551-16.421 19.627-26.279 35.123-20.278 10.569 4.093 22.572.877 29.678-7.952 10.421-12.945 30.137-12.945 40.557 0z" fill="#fc8086"/><circle cx="256" cy="144.745" fill="#fbe77b" r="97.622"/><path d="m256 47.123c-11.078 0-21.724 1.849-31.65 5.249 38.38 13.147 65.973 49.536 65.973 92.374s-27.593 79.227-65.973 92.374c9.926 3.4 20.571 5.249 31.65 5.249 53.915 0 97.622-43.707 97.622-97.622s-43.707-97.624-97.622-97.624z" fill="#ffd064"/></g></g><path d="m257.899 175.832 31.059 20.53c2.655 1.755 6.066-.723 5.218-3.791l-9.927-35.883c-.368-1.33.094-2.752 1.174-3.612l29.123-23.195c2.49-1.983 1.187-5.993-1.993-6.134l-37.194-1.647c-1.379-.061-2.588-.94-3.072-2.232l-13.06-34.865c-1.117-2.981-5.333-2.981-6.449 0l-13.06 34.865c-.484 1.293-1.693 2.171-3.072 2.232l-37.194 1.647c-3.18.141-4.483 4.151-1.993 6.134l29.123 23.195c1.08.86 1.542 2.281 1.174 3.612l-9.927 35.883c-.849 3.068 2.562 5.546 5.218 3.791l31.059-20.53c1.147-.761 2.641-.761 3.793 0z" fill="#e7a52e"/></g><g><g><g><g><g><g><g><g><g><g><g><path d="m285.268 398.72-79.143-9.112c-18.257-2.583-27.38-8.701-43.295-18.011-21.729-12.711-46.449-19.41-71.623-19.41h-28.377v55.336l103.447 38.505c8.786 3.27 18.085 4.945 27.46 4.945l123.798-3.007-.154-3.242.154-12.369c-1.721-17.308-15.047-31.198-32.267-33.635z" fill="#ffece3"/></g><path d="m447.344 387.499s-127.903 57.224-129.962 57.224l-123.644 3.931c-9.375 0-18.674-1.675-27.46-4.945l-103.448-38.505v63.346l103.447 38.505c8.786 3.27 18.085 4.945 27.46 4.945h106.611c14.919 0 29.532-4.24 42.134-12.225l133.486-75.31c8.807-7.82 10.439-20.963 3.814-30.699-7.25-10.655-19.242-12.507-32.438-6.267z" fill="#ffddce"/><path d="m78.55 484.253c0 7.525-6.1 13.624-13.624 13.624h-23.143c-7.525 0-13.624-6.1-13.624-13.624v-147.791c0-7.525 6.1-13.624 13.624-13.624h23.142c7.525 0 13.624 6.1 13.624 13.624v147.791z" fill="#7c8b96"/></g></g></g></g></g></g></g></g></g></g></g></g></svg>