<svg id="Capa_1" enable-background="new 0 0 511.381 511.381" height="512" viewBox="0 0 511.381 511.381" width="512" xmlns="http://www.w3.org/2000/svg"><g><path d="m389.022 296.205c27.879-31.455 44.835-72.8 44.835-118.038 0-98.242-79.926-178.167-178.167-178.167s-178.166 79.925-178.166 178.167c0 45.237 16.956 86.583 44.835 118.038l-58.604 166.174 78.382-.762 60.563 49.764 52.99-150.255 52.989 150.255 60.564-49.764 78.382.762zm-66.296 164.805-37.767-107.094c29.872-4.958 57.258-17.366 80.172-35.255l39.958 113.303-46.462-.452zm-169.972-29.498-46.462.452 39.957-113.303c22.914 17.889 50.3 30.297 80.172 35.255l-37.767 107.094zm102.936-401.512c81.699 0 148.167 66.467 148.167 148.167 0 81.699-66.468 148.166-148.167 148.166s-148.166-66.467-148.166-148.166c0-81.7 66.467-148.167 148.166-148.167z"/><path d="m166.024 246h179.333v-127.241l-46.704 15.271-42.963-36.344-42.962 36.344-46.704-15.271zm30-85.869 23.296 7.618 36.37-30.768 36.371 30.768 23.296-7.618v55.869h-119.333z"/></g></svg>