<svg id="Capa_1" enable-background="new 0 0 512 512" height="512" viewBox="0 0 512 512" width="512" xmlns="http://www.w3.org/2000/svg" xmlns:xlink="http://www.w3.org/1999/xlink"><linearGradient id="SVGID_1_" gradientUnits="userSpaceOnUse" x1="256" x2="256" y1="323.92" y2="0"><stop offset="0" stop-color="#ffe59a"/><stop offset="1" stop-color="#ffffd5"/></linearGradient><linearGradient id="SVGID_2_" gradientUnits="userSpaceOnUse" x1="256" x2="256" y1="512" y2="60"><stop offset="0" stop-color="#fd5900"/><stop offset="1" stop-color="#ffde00"/></linearGradient><g><g><g><g><path d="m91 226c0 5.46 2.97 10.49 7.74 13.13l150 82.92c2.26 1.24 4.76 1.87 7.26 1.87s5-.63 7.26-1.87l150-82.92c4.77-2.64 7.74-7.67 7.74-13.13v-81.15h-330zm375-226h-420c-8.284 0-15 6.716-15 15v30c0 8.284 6.716 15 15 15h45l36 6h272l22-6h45c8.284 0 15-6.716 15-15v-30c0-8.284-6.716-15-15-15z" fill="url(#SVGID_1_)"/></g></g></g><g><g><path d="m91 60v84.85l157.74 87.2c2.26 1.24 4.76 1.87 7.26 1.87s5-.63 7.26-1.87l157.74-87.2v-84.85zm267.019 304.762-61.14-8.884-27.387-56.379c-2.51-5.166-7.749-8.446-13.492-8.446s-10.982 3.28-13.492 8.446l-27.387 56.379-61.14 8.884c-5.65.821-10.345 4.779-12.108 10.209-1.765 5.43-.293 11.391 3.796 15.376l44.283 43.166-10.454 60.951c-.965 5.627 1.349 11.315 5.968 14.671 4.618 3.355 10.741 3.799 15.797 1.142l54.737-28.777 54.737 28.777c5.1 2.68 11.219 2.184 15.797-1.142 4.619-3.356 6.933-9.043 5.968-14.671l-10.454-60.951 44.283-43.166c4.089-3.985 5.561-9.946 3.796-15.376-1.764-5.43-6.458-9.388-12.108-10.209z" fill="url(#SVGID_2_)"/></g></g></g></svg>