<svg id="Capa_1" enable-background="new 0 0 512 512" height="512" viewBox="0 0 512 512" width="512" xmlns="http://www.w3.org/2000/svg"><g><path d="m272.494 159.829-16.494-33.413-16.494 33.413-36.87 5.361 26.675 26.016-6.285 36.709 32.974-17.344 32.974 17.344-6.285-36.709 26.675-26.016z"/><path d="m61 0v380.024l195 131.976 195-131.976v-380.024zm195 410.918-110.801-73.872 16.641-24.961 94.16 62.769 94.16-62.769 16.641 24.961zm58.916-209.253 13.901 81.094-72.817-38.291-72.817 38.291 13.901-81.094-58.901-57.422 81.401-11.836 36.416-73.784 36.416 73.784 81.401 11.836z"/></g></svg>